<?xml version="1.0" encoding="utf-8"?><svg width="92" height="72" viewBox="0 0 92 72" xmlns="http://www.w3.org/2000/svg" xmlns:xlink="http://www.w3.org/1999/xlink"><svg viewBox="0 0 408.788 408.788" width="22" height="22" id="facebook" x="25" y="25" xmlns="http://www.w3.org/2000/svg"><path d="M353.701 0H55.087C24.665 0 .002 24.662.002 55.085v298.616c0 30.423 24.662 55.085 55.085 55.085h147.275l.251-146.078h-37.951a8.954 8.954 0 0 1-8.954-8.92l-.182-47.087a8.955 8.955 0 0 1 8.955-8.989h37.882v-45.498c0-52.8 32.247-81.55 79.348-81.55h38.65a8.955 8.955 0 0 1 8.955 8.955v39.704a8.955 8.955 0 0 1-8.95 8.955l-23.719.011c-25.615 0-30.575 12.172-30.575 30.035v39.389h56.285c5.363 0 9.524 4.683 8.892 10.009l-5.581 47.087a8.955 8.955 0 0 1-8.892 7.901h-50.453l-.251 146.078h87.631c30.422 0 55.084-24.662 55.084-55.084V55.085C408.786 24.662 384.124 0 353.701 0z" data-original="#475993" class="aactive-path" data-old_color="#a4119f" fill="#a4119f"/></svg><svg viewBox="0 0 26 26" width="22" height="22" id="instagram" x="50" xmlns="http://www.w3.org/2000/svg"><path d="M20 7c-.551 0-1-.449-1-1V4c0-.551.449-1 1-1h2c.551 0 1 .449 1 1v2c0 .551-.449 1-1 1h-2zM13 9.188c-.726 0-1.396.213-1.973.563.18-.056.367-.093.564-.093a1.933 1.933 0 1 1-1.933 1.934c0-.199.039-.386.094-.565A3.77 3.77 0 0 0 9.188 13a3.81 3.81 0 0 0 3.813 3.813A3.812 3.812 0 1 0 13 9.188z" data-original="#000000" class="bactive-path" data-old_color="#a4119f" fill="#a4119f"/><path d="M13 7a6 6 0 1 1 0 12 6 6 0 0 1 0-12m0-2c-4.411 0-8 3.589-8 8s3.589 8 8 8 8-3.589 8-8-3.589-8-8-8z" data-original="#000000" class="bactive-path" data-old_color="#a4119f" fill="#a4119f"/><path d="M21.125 0H4.875A4.874 4.874 0 0 0 0 4.875v16.25A4.874 4.874 0 0 0 4.875 26h16.25A4.874 4.874 0 0 0 26 21.125V4.875A4.874 4.874 0 0 0 21.125 0zM24 9h-6.537A5.97 5.97 0 0 1 19 13a6 6 0 0 1-12 0c0-1.539.584-2.938 1.537-4H2V4.875A2.879 2.879 0 0 1 4.875 2h16.25A2.878 2.878 0 0 1 24 4.875V9z" data-original="#000000" class="bactive-path" data-old_color="#a4119f" fill="#a4119f"/></svg><svg width="22" height="22" viewBox="0 0 22 22" id="love" x="50" y="22" xmlns="http://www.w3.org/2000/svg"><path d="M10.934 4.457C11.82 2.352 13.852.879 16.21.879c3.176 0 5.465 2.719 5.754 5.96 0 0 .156.806-.188 2.25-.465 1.973-1.558 3.727-3.035 5.063l-7.808 6.97-7.676-6.97C1.78 12.816.688 11.062.223 9.09-.121 7.645.035 6.84.035 6.84.325 3.598 2.613.879 5.79.879c2.36 0 4.258 1.473 5.145 3.578zm0 0" fill="#a4119f"/></svg><svg width="20" height="20" viewBox="0 0 20 20" id="love-empty" x="44" y="50" xmlns="http://www.w3.org/2000/svg"><path d="M10 18.887c-.285 0-.559-.102-.773-.29a234.399 234.399 0 0 0-2.274-1.956l-.004-.004c-2.015-1.715-3.754-3.2-4.965-4.66C.63 10.344 0 8.797 0 7.105c0-1.644.563-3.16 1.586-4.27a5.372 5.372 0 0 1 4-1.741c1.156 0 2.215.363 3.144 1.086A6.51 6.51 0 0 1 10 3.504c.375-.516.8-.961 1.27-1.324a5.023 5.023 0 0 1 3.144-1.086c1.543 0 2.965.617 4 1.742C19.437 3.946 20 5.46 20 7.106c0 1.69-.629 3.238-1.984 4.87-1.211 1.461-2.95 2.946-4.965 4.66-.688.587-1.469 1.255-2.278 1.962-.214.187-.488.289-.773.289zM5.586 2.266c-1.211 0-2.328.484-3.137 1.363-.824.894-1.277 2.129-1.277 3.476 0 1.422.527 2.696 1.715 4.125 1.144 1.383 2.847 2.836 4.82 4.516l.004.004c.691.586 1.473 1.254 2.289 1.965.816-.711 1.602-1.38 2.293-1.969 1.973-1.684 3.676-3.133 4.82-4.516 1.188-1.43 1.715-2.703 1.715-4.125 0-1.347-.453-2.582-1.277-3.476a4.216 4.216 0 0 0-3.137-1.363 3.87 3.87 0 0 0-2.426.84c-.644.496-1.09 1.124-1.351 1.562a.74.74 0 0 1-1.274 0c-.261-.438-.707-1.066-1.351-1.563a3.87 3.87 0 0 0-2.426-.84zm0 0" fill="#e13a3a"/></svg><svg width="20" height="20" viewBox="0 0 20 20" id="love-full" x="72" xmlns="http://www.w3.org/2000/svg"><path d="M9.941 4.05C10.746 2.138 12.59.8 14.734.8c2.891 0 4.973 2.473 5.235 5.419 0 0 .14.73-.172 2.047-.422 1.793-1.418 3.386-2.758 4.601L9.941 19.2l-6.98-6.332C1.62 11.652.625 10.06.203 8.266-.109 6.949.031 6.219.031 6.219.293 3.273 2.375.8 5.261.8c2.15 0 3.872 1.336 4.68 3.25zm0 0" fill="#d75a4a"/></svg><svg width="25" height="25" viewBox="0 0 25 25" id="made-empty" xmlns="http://www.w3.org/2000/svg"><g fill="#fde380"><path d="M24.54 22.273h-2.536l-.617-5.851.683 1.023.168.848a1.393 1.393 0 0 0 1.887 1.02c.36-.145.645-.434.785-.797a1.4 1.4 0 0 0-.058-1.121l-.356-.711c0-.004-.004-.008-.004-.008 0-.004 0-.004-.004-.008l-2.492-4.574a.412.412 0 0 0-.21-.188l-1.13-.449a3.743 3.743 0 0 0 1.39-2.91c0-.625-.167-1.242-.468-1.793l-.215-2.149c.668-.285 1.098-.84 1.098-1.464 0-.895-.89-1.63-1.996-1.66a2.494 2.494 0 0 0-4.324 0c-1.11.03-2 .765-2 1.66 0 .625.43 1.18 1.101 1.464l-.215 2.149a3.71 3.71 0 0 0 .918 4.7l-1.125.452a.454.454 0 0 0-.172.125l-1.402 1.754-1.695-1.355-.453-.754a1.567 1.567 0 0 0-.282-.336v-1.13c0-.538-.351-.995-.832-1.17V7.3h.414a1.25 1.25 0 0 0 1.25-1.245V3.559c0-.688-.562-1.25-1.25-1.25H8.734a1.25 1.25 0 0 0-1.246 1.25v2.496c0 .687.559 1.246 1.246 1.246h.418v1.738a1.251 1.251 0 0 0-.832 1.172v1.668a1.517 1.517 0 0 0-.117.793c.059.48.332.898.746 1.148l.79.473 2.765 2.422a1.239 1.239 0 0 0 1.617.015l1.164-.968-.683 6.511H7.328l.488-.972a2.084 2.084 0 0 0 1.336-1.938v-.91c.48-.172.832-.629.832-1.168 0-.691-.562-1.25-1.25-1.25H1.246c-.687 0-1.246.559-1.246 1.25 0 .54.348.996.832 1.168v.91c0 .883.555 1.637 1.336 1.938l.488.972H.414a.418.418 0 0 0-.414.418v1.664c0 .23.188.415.414.415H24.54c.23 0 .418-.184.418-.415v-1.664a.418.418 0 0 0-.418-.418zM9.151 6.47h-.418a.414.414 0 0 1-.414-.414V3.559c0-.23.184-.418.414-.418h.418zM24.11 17.766c.07.14.078.304.024.453a.567.567 0 0 1-.317.32.551.551 0 0 1-.476-.027.55.55 0 0 1-.285-.383l-.11-.54.957-.237zm-2.773-5.145l2.168 3.973-.86.215-1.46-2.196-.606-2.293zm-.914 2.582l.746 7.07h-5.73l.742-7.07zm-4.074-.832l.609-2.332c.02.008.035.012.05.02.087.027.169.058.255.082a4.257 4.257 0 0 0 .34.082c.043.007.082.011.125.02.074.01.148.023.226.03.05.004.106.008.16.008.063.004.125.012.188.012.066 0 .125-.008.191-.012.051 0 .106-.004.16-.008.075-.007.153-.02.227-.03.039-.009.082-.013.121-.02.082-.016.16-.036.242-.055.031-.008.067-.016.098-.027a2.75 2.75 0 0 0 .254-.082c.015-.008.035-.012.05-.02l.614 2.332zm-1.375-11.23c0-.45.574-.832 1.25-.832.023 0 .047.003.07.007l.066.004a.419.419 0 0 0 .414-.25 1.665 1.665 0 0 1 3.059 0c.07.164.238.266.414.25l.067-.004c.023-.003.042-.007.07-.007.676 0 1.246.382 1.246.832 0 .332-.336.652-.817.773a.417.417 0 0 0-.312.445l.254 2.524h-4.902l.25-2.524a.42.42 0 0 0-.313-.445c-.48-.121-.816-.441-.816-.773zm.418 5.406c0-.281.043-.563.12-.832h5.579c.082.27.125.55.125.832a2.92 2.92 0 0 1-1.656 2.625 2.633 2.633 0 0 1-.29.117c-.003.004-.007.004-.011.008a2.911 2.911 0 0 1-1.91 0c-.008-.004-.012-.004-.016-.008a2.633 2.633 0 0 1-.289-.117 2.916 2.916 0 0 1-1.652-2.625zM9.984 3.14h.414c.23 0 .418.187.418.418v2.496a.418.418 0 0 1-.418.414h-.414zm-.418 6.656c.23 0 .418.187.418.414v.723h-.007c-.012 0-.02-.004-.032-.008-.023 0-.043.004-.066 0-.074-.004-.145-.008-.219 0-.035 0-.07 0-.105.004a1.49 1.49 0 0 0-.254.058c-.035.008-.067.02-.102.032-.015.007-.031.011-.047.02v-.83c0-.226.184-.413.414-.413zm-.187 3.312a.733.733 0 0 1-.352-.539.725.725 0 0 1 .078-.418c0-.004.004-.007.004-.007l.055-.094c.024-.031.047-.063.074-.09a.736.736 0 0 1 .196-.137c.007-.004.011-.008.02-.008a.632.632 0 0 1 .222-.062h.015a.731.731 0 0 1 .227.016c.008.003.016.003.023.007a.668.668 0 0 1 .23.102.718.718 0 0 1 .212.223l.324.543-.789.789zm4.21 2.985a.415.415 0 0 1-.538-.008l-2.461-2.152.672-.668 1.789 1.43c.18.144.441.117.582-.063l1.597-1.996.793-.317-.585 2.235zM1.247 17.699a.417.417 0 0 1 0-.832h7.488c.23 0 .418.188.418.418a.418.418 0 0 1-.418.414zm.418 1.664v-.832H8.32v.832a1.25 1.25 0 0 1-1.25 1.246H2.91a1.247 1.247 0 0 1-1.246-1.246zm5.149 2.078l-.415.832h-.992v-.832zm-2.239 0v.832h-.988l-.418-.832zm19.551 2.497H.832v-.833h23.293zm0 0"/><path d="M19.55 16.867h-2.495a.418.418 0 0 0-.418.418v1.246c0 .918.746 1.664 1.664 1.664.918 0 1.664-.746 1.664-1.664v-1.246a.418.418 0 0 0-.414-.418zm-.417 1.664a.833.833 0 0 1-1.664 0V17.7h1.664zm0 0M4.574 12.707h.832v2.082h-.832zm0 0M6.656 13.54h.832v1.663h-.832zm0 0M2.496 13.54h.832v1.663h-.832zm0 0M4.574 11.043h.832v.832h-.832zm0 0M2.496 11.875h.832v.832h-.832zm0 0M6.656 11.875h.832v.832h-.832zm0 0"/></g></svg><svg width="25" height="25" viewBox="0 0 25 25" id="made-full" x="25" xmlns="http://www.w3.org/2000/svg"><g fill="#a4119f"><path d="M24.54 22.273h-2.536l-.617-5.851.683 1.023.168.848a1.393 1.393 0 0 0 1.887 1.02c.36-.145.645-.434.785-.797a1.4 1.4 0 0 0-.058-1.121l-.356-.711c0-.004-.004-.008-.004-.008 0-.004 0-.004-.004-.008l-2.492-4.574a.412.412 0 0 0-.21-.188l-1.13-.449a3.743 3.743 0 0 0 1.39-2.91c0-.625-.167-1.242-.468-1.793l-.215-2.149c.668-.285 1.098-.84 1.098-1.464 0-.895-.89-1.63-1.996-1.66a2.494 2.494 0 0 0-4.324 0c-1.11.03-2 .765-2 1.66 0 .625.43 1.18 1.101 1.464l-.215 2.149a3.71 3.71 0 0 0 .918 4.7l-1.125.452a.454.454 0 0 0-.172.125l-1.402 1.754-1.695-1.355-.453-.754a1.567 1.567 0 0 0-.282-.336v-1.13c0-.538-.351-.995-.832-1.17V7.3h.414a1.25 1.25 0 0 0 1.25-1.245V3.559c0-.688-.562-1.25-1.25-1.25H8.734a1.25 1.25 0 0 0-1.246 1.25v2.496c0 .687.559 1.246 1.246 1.246h.418v1.738a1.251 1.251 0 0 0-.832 1.172v1.668a1.517 1.517 0 0 0-.117.793c.059.48.332.898.746 1.148l.79.473 2.765 2.422a1.239 1.239 0 0 0 1.617.015l1.164-.968-.683 6.511H7.328l.488-.972a2.084 2.084 0 0 0 1.336-1.938v-.91c.48-.172.832-.629.832-1.168 0-.691-.562-1.25-1.25-1.25H1.246c-.687 0-1.246.559-1.246 1.25 0 .54.348.996.832 1.168v.91c0 .883.555 1.637 1.336 1.938l.488.972H.414a.418.418 0 0 0-.414.418v1.664c0 .23.188.415.414.415H24.54c.23 0 .418-.184.418-.415v-1.664a.418.418 0 0 0-.418-.418zM9.151 6.47h-.418a.414.414 0 0 1-.414-.414V3.559c0-.23.184-.418.414-.418h.418zM24.11 17.766c.07.14.078.304.024.453a.567.567 0 0 1-.317.32.551.551 0 0 1-.476-.027.55.55 0 0 1-.285-.383l-.11-.54.957-.237zm-2.773-5.145l2.168 3.973-.86.215-1.46-2.196-.606-2.293zm-.914 2.582l.746 7.07h-5.73l.742-7.07zm-4.074-.832l.609-2.332c.02.008.035.012.05.02.087.027.169.058.255.082a4.257 4.257 0 0 0 .34.082c.043.007.082.011.125.02.074.01.148.023.226.03.05.004.106.008.16.008.063.004.125.012.188.012.066 0 .125-.008.191-.012.051 0 .106-.004.16-.008.075-.007.153-.02.227-.03.039-.009.082-.013.121-.02.082-.016.16-.036.242-.055.031-.008.067-.016.098-.027a2.75 2.75 0 0 0 .254-.082c.015-.008.035-.012.05-.02l.614 2.332zm-1.375-11.23c0-.45.574-.832 1.25-.832.023 0 .047.003.07.007l.066.004a.419.419 0 0 0 .414-.25 1.665 1.665 0 0 1 3.059 0c.07.164.238.266.414.25l.067-.004c.023-.003.042-.007.07-.007.676 0 1.246.382 1.246.832 0 .332-.336.652-.817.773a.417.417 0 0 0-.312.445l.254 2.524h-4.902l.25-2.524a.42.42 0 0 0-.313-.445c-.48-.121-.816-.441-.816-.773zm.418 5.406c0-.281.043-.563.12-.832h5.579c.082.27.125.55.125.832a2.92 2.92 0 0 1-1.656 2.625 2.633 2.633 0 0 1-.29.117c-.003.004-.007.004-.011.008a2.911 2.911 0 0 1-1.91 0c-.008-.004-.012-.004-.016-.008a2.633 2.633 0 0 1-.289-.117 2.916 2.916 0 0 1-1.652-2.625zM9.984 3.14h.414c.23 0 .418.187.418.418v2.496a.418.418 0 0 1-.418.414h-.414zm-.418 6.656c.23 0 .418.187.418.414v.723h-.007c-.012 0-.02-.004-.032-.008-.023 0-.043.004-.066 0-.074-.004-.145-.008-.219 0-.035 0-.07 0-.105.004a1.49 1.49 0 0 0-.254.058c-.035.008-.067.02-.102.032-.015.007-.031.011-.047.02v-.83c0-.226.184-.413.414-.413zm-.187 3.312a.733.733 0 0 1-.352-.539.725.725 0 0 1 .078-.418c0-.004.004-.007.004-.007l.055-.094c.024-.031.047-.063.074-.09a.736.736 0 0 1 .196-.137c.007-.004.011-.008.02-.008a.632.632 0 0 1 .222-.062h.015a.731.731 0 0 1 .227.016c.008.003.016.003.023.007a.668.668 0 0 1 .23.102.718.718 0 0 1 .212.223l.324.543-.789.789zm4.21 2.985a.415.415 0 0 1-.538-.008l-2.461-2.152.672-.668 1.789 1.43c.18.144.441.117.582-.063l1.597-1.996.793-.317-.585 2.235zM1.247 17.699a.417.417 0 0 1 0-.832h7.488c.23 0 .418.188.418.418a.418.418 0 0 1-.418.414zm.418 1.664v-.832H8.32v.832a1.25 1.25 0 0 1-1.25 1.246H2.91a1.247 1.247 0 0 1-1.246-1.246zm5.149 2.078l-.415.832h-.992v-.832zm-2.239 0v.832h-.988l-.418-.832zm19.551 2.497H.832v-.833h23.293zm0 0"/><path d="M19.55 16.867h-2.495a.418.418 0 0 0-.418.418v1.246c0 .918.746 1.664 1.664 1.664.918 0 1.664-.746 1.664-1.664v-1.246a.418.418 0 0 0-.414-.418zm-.417 1.664a.833.833 0 0 1-1.664 0V17.7h1.664zm0 0M4.574 12.707h.832v2.082h-.832zm0 0M6.656 13.54h.832v1.663h-.832zm0 0M2.496 13.54h.832v1.663h-.832zm0 0M4.574 11.043h.832v.832h-.832zm0 0M2.496 11.875h.832v.832h-.832zm0 0M6.656 11.875h.832v.832h-.832zm0 0"/></g></svg><svg width="25" height="25" viewBox="0 0 25 25" id="refresh" y="25" xmlns="http://www.w3.org/2000/svg"><g fill="#a4119f"><path d="M24.691 1.352a.998.998 0 0 0-.734-.309.996.996 0 0 0-.73.309l-2.118 2.097A12.6 12.6 0 0 0 17.121.902 12.275 12.275 0 0 0 12.5 0C9.516 0 6.91.902 4.687 2.71 2.466 4.517 1 6.876.293 9.782v.114c0 .14.05.265.156.367a.5.5 0 0 0 .363.156h3.239c.242 0 .402-.125.488-.375.457-1.086.746-1.719.863-1.906A8.265 8.265 0 0 1 8.43 5.223a8.224 8.224 0 0 1 4.07-1.055c2.18 0 4.074.742 5.68 2.227L15.934 8.64a1.004 1.004 0 0 0-.309.734c0 .281.102.527.309.734.207.204.449.309.734.309h7.289c.285 0 .527-.105.734-.309.207-.207.309-.453.309-.734V2.082a.996.996 0 0 0-.309-.73zm0 0M24.07 14.582h-3.125c-.238 0-.398.125-.484.375-.457 1.086-.746 1.719-.863 1.906a8.265 8.265 0 0 1-3.028 2.914 8.224 8.224 0 0 1-4.07 1.055 8.125 8.125 0 0 1-3.043-.586 8.343 8.343 0 0 1-2.621-1.66l2.23-2.23a.99.99 0 0 0 .309-.731c0-.281-.102-.527-.309-.734a1.013 1.013 0 0 0-.734-.309H1.043c-.285 0-.527.105-.734.309a1.004 1.004 0 0 0-.309.734v7.293c0 .281.102.523.309.73.207.207.449.309.734.309a.996.996 0 0 0 .73-.309l2.102-2.097a12.447 12.447 0 0 0 3.96 2.554c1.485.598 3.017.895 4.599.895 2.976 0 5.566-.902 7.78-2.71 2.216-1.806 3.669-4.165 4.364-7.071a.494.494 0 0 0-.14-.48.502.502 0 0 0-.368-.157zm0 0"/></g></svg><svg viewBox="0 0 410.155 410.155" width="22" height="22" id="twiter" y="50" xmlns="http://www.w3.org/2000/svg"><path d="M403.632 74.18a162.414 162.414 0 0 1-28.28 9.537 88.177 88.177 0 0 0 23.275-37.067c1.295-4.051-3.105-7.554-6.763-5.385a163.188 163.188 0 0 1-43.235 17.862 11.02 11.02 0 0 1-2.702.336c-2.766 0-5.455-1.027-7.57-2.891-16.156-14.239-36.935-22.081-58.508-22.081-9.335 0-18.76 1.455-28.014 4.325-28.672 8.893-50.795 32.544-57.736 61.724-2.604 10.945-3.309 21.9-2.097 32.56a3.166 3.166 0 0 1-.797 2.481 3.278 3.278 0 0 1-2.753 1.091c-62.762-5.831-119.358-36.068-159.363-85.14-2.04-2.503-5.952-2.196-7.578.593-7.834 13.44-11.974 28.812-11.974 44.454 0 23.972 9.631 46.563 26.36 63.032a79.24 79.24 0 0 1-20.169-7.808c-3.06-1.7-6.825.485-6.868 3.985-.438 35.612 20.412 67.3 51.646 81.569a79.567 79.567 0 0 1-16.786-1.399c-3.446-.658-6.341 2.611-5.271 5.952 10.138 31.651 37.39 54.981 70.002 60.278-27.066 18.169-58.585 27.753-91.39 27.753l-10.227-.006c-3.151 0-5.816 2.054-6.619 5.106-.791 3.006.666 6.177 3.353 7.74 36.966 21.513 79.131 32.883 121.955 32.883 37.485 0 72.549-7.439 104.219-22.109 29.033-13.449 54.689-32.674 76.255-57.141 20.09-22.792 35.8-49.103 46.692-78.201 10.383-27.737 15.871-57.333 15.871-85.589v-1.346c-.001-4.537 2.051-8.806 5.631-11.712a174.776 174.776 0 0 0 35.16-38.591c2.573-3.849-1.485-8.673-5.719-6.795z" data-original="#76A9EA" class="iactive-path" data-old_color="#a4119f" fill="#a4119f"/></svg><svg viewBox="0 0 461.001 461.001" width="22" height="22" id="youtube" x="22" y="50" xmlns="http://www.w3.org/2000/svg"><path d="M365.257 67.393H95.744C42.866 67.393 0 110.259 0 163.137v134.728c0 52.878 42.866 95.744 95.744 95.744h269.513c52.878 0 95.744-42.866 95.744-95.744V163.137c0-52.878-42.866-95.744-95.744-95.744zm-64.751 169.663l-126.06 60.123c-3.359 1.602-7.239-.847-7.239-4.568V168.607c0-3.774 3.982-6.22 7.348-4.514l126.06 63.881c3.748 1.899 3.683 7.274-.109 9.082z" data-original="#F61C0D" class="jactive-path" data-old_color="#a4119f" fill="#a4119f"/></svg></svg>