<?xml version="1.0" encoding="utf-8"?><svg width="69" height="47" viewBox="0 0 69 47" xmlns="http://www.w3.org/2000/svg" xmlns:xlink="http://www.w3.org/1999/xlink"><svg viewBox="0 0 408.788 408.788" width="22" height="22" id="facebook" x="25" xmlns="http://www.w3.org/2000/svg"><path d="M353.701 0H55.087C24.665 0 .002 24.662.002 55.085v298.616c0 30.423 24.662 55.085 55.085 55.085h147.275l.251-146.078h-37.951a8.954 8.954 0 0 1-8.954-8.92l-.182-47.087a8.955 8.955 0 0 1 8.955-8.989h37.882v-45.498c0-52.8 32.247-81.55 79.348-81.55h38.65a8.955 8.955 0 0 1 8.955 8.955v39.704a8.955 8.955 0 0 1-8.95 8.955l-23.719.011c-25.615 0-30.575 12.172-30.575 30.035v39.389h56.285c5.363 0 9.524 4.683 8.892 10.009l-5.581 47.087a8.955 8.955 0 0 1-8.892 7.901h-50.453l-.251 146.078h87.631c30.422 0 55.084-24.662 55.084-55.084V55.085C408.786 24.662 384.124 0 353.701 0z" data-original="#475993" class="aactive-path" data-old_color="#a4119f" fill="#a4119f"/></svg><svg viewBox="0 0 26 26" width="22" height="22" id="instagram" y="25" xmlns="http://www.w3.org/2000/svg"><path d="M20 7c-.551 0-1-.449-1-1V4c0-.551.449-1 1-1h2c.551 0 1 .449 1 1v2c0 .551-.449 1-1 1h-2zM13 9.188c-.726 0-1.396.213-1.973.563.18-.056.367-.093.564-.093a1.933 1.933 0 1 1-1.933 1.934c0-.199.039-.386.094-.565A3.77 3.77 0 0 0 9.188 13a3.81 3.81 0 0 0 3.813 3.813A3.812 3.812 0 1 0 13 9.188z" data-original="#000000" class="bactive-path" data-old_color="#a4119f" fill="#a4119f"/><path d="M13 7a6 6 0 1 1 0 12 6 6 0 0 1 0-12m0-2c-4.411 0-8 3.589-8 8s3.589 8 8 8 8-3.589 8-8-3.589-8-8-8z" data-original="#000000" class="bactive-path" data-old_color="#a4119f" fill="#a4119f"/><path d="M21.125 0H4.875A4.874 4.874 0 0 0 0 4.875v16.25A4.874 4.874 0 0 0 4.875 26h16.25A4.874 4.874 0 0 0 26 21.125V4.875A4.874 4.874 0 0 0 21.125 0zM24 9h-6.537A5.97 5.97 0 0 1 19 13a6 6 0 0 1-12 0c0-1.539.584-2.938 1.537-4H2V4.875A2.879 2.879 0 0 1 4.875 2h16.25A2.878 2.878 0 0 1 24 4.875V9z" data-original="#000000" class="bactive-path" data-old_color="#a4119f" fill="#a4119f"/></svg><svg width="22" height="22" viewBox="0 0 22 22" id="love" x="22" y="25" xmlns="http://www.w3.org/2000/svg"><path d="M10.934 4.457C11.82 2.352 13.852.879 16.21.879c3.176 0 5.465 2.719 5.754 5.96 0 0 .156.806-.188 2.25-.465 1.973-1.558 3.727-3.035 5.063l-7.808 6.97-7.676-6.97C1.78 12.816.688 11.062.223 9.09-.121 7.645.035 6.84.035 6.84.325 3.598 2.613.879 5.79.879c2.36 0 4.258 1.473 5.145 3.578zm0 0" fill="#a4119f"/></svg><svg width="25" height="25" viewBox="0 0 25 25" id="refresh" xmlns="http://www.w3.org/2000/svg"><g fill="#a4119f"><path d="M24.691 1.352a.998.998 0 0 0-.734-.309.996.996 0 0 0-.73.309l-2.118 2.097A12.6 12.6 0 0 0 17.121.902 12.275 12.275 0 0 0 12.5 0C9.516 0 6.91.902 4.687 2.71 2.466 4.517 1 6.876.293 9.782v.114c0 .14.05.265.156.367a.5.5 0 0 0 .363.156h3.239c.242 0 .402-.125.488-.375.457-1.086.746-1.719.863-1.906A8.265 8.265 0 0 1 8.43 5.223a8.224 8.224 0 0 1 4.07-1.055c2.18 0 4.074.742 5.68 2.227L15.934 8.64a1.004 1.004 0 0 0-.309.734c0 .281.102.527.309.734.207.204.449.309.734.309h7.289c.285 0 .527-.105.734-.309.207-.207.309-.453.309-.734V2.082a.996.996 0 0 0-.309-.73zm0 0M24.07 14.582h-3.125c-.238 0-.398.125-.484.375-.457 1.086-.746 1.719-.863 1.906a8.265 8.265 0 0 1-3.028 2.914 8.224 8.224 0 0 1-4.07 1.055 8.125 8.125 0 0 1-3.043-.586 8.343 8.343 0 0 1-2.621-1.66l2.23-2.23a.99.99 0 0 0 .309-.731c0-.281-.102-.527-.309-.734a1.013 1.013 0 0 0-.734-.309H1.043c-.285 0-.527.105-.734.309a1.004 1.004 0 0 0-.309.734v7.293c0 .281.102.523.309.73.207.207.449.309.734.309a.996.996 0 0 0 .73-.309l2.102-2.097a12.447 12.447 0 0 0 3.96 2.554c1.485.598 3.017.895 4.599.895 2.976 0 5.566-.902 7.78-2.71 2.216-1.806 3.669-4.165 4.364-7.071a.494.494 0 0 0-.14-.48.502.502 0 0 0-.368-.157zm0 0"/></g></svg><svg viewBox="0 0 410.155 410.155" width="22" height="22" id="twiter" x="47" xmlns="http://www.w3.org/2000/svg"><path d="M403.632 74.18a162.414 162.414 0 0 1-28.28 9.537 88.177 88.177 0 0 0 23.275-37.067c1.295-4.051-3.105-7.554-6.763-5.385a163.188 163.188 0 0 1-43.235 17.862 11.02 11.02 0 0 1-2.702.336c-2.766 0-5.455-1.027-7.57-2.891-16.156-14.239-36.935-22.081-58.508-22.081-9.335 0-18.76 1.455-28.014 4.325-28.672 8.893-50.795 32.544-57.736 61.724-2.604 10.945-3.309 21.9-2.097 32.56a3.166 3.166 0 0 1-.797 2.481 3.278 3.278 0 0 1-2.753 1.091c-62.762-5.831-119.358-36.068-159.363-85.14-2.04-2.503-5.952-2.196-7.578.593-7.834 13.44-11.974 28.812-11.974 44.454 0 23.972 9.631 46.563 26.36 63.032a79.24 79.24 0 0 1-20.169-7.808c-3.06-1.7-6.825.485-6.868 3.985-.438 35.612 20.412 67.3 51.646 81.569a79.567 79.567 0 0 1-16.786-1.399c-3.446-.658-6.341 2.611-5.271 5.952 10.138 31.651 37.39 54.981 70.002 60.278-27.066 18.169-58.585 27.753-91.39 27.753l-10.227-.006c-3.151 0-5.816 2.054-6.619 5.106-.791 3.006.666 6.177 3.353 7.74 36.966 21.513 79.131 32.883 121.955 32.883 37.485 0 72.549-7.439 104.219-22.109 29.033-13.449 54.689-32.674 76.255-57.141 20.09-22.792 35.8-49.103 46.692-78.201 10.383-27.737 15.871-57.333 15.871-85.589v-1.346c-.001-4.537 2.051-8.806 5.631-11.712a174.776 174.776 0 0 0 35.16-38.591c2.573-3.849-1.485-8.673-5.719-6.795z" data-original="#76A9EA" class="eactive-path" data-old_color="#a4119f" fill="#a4119f"/></svg><svg viewBox="0 0 461.001 461.001" width="22" height="22" id="youtube" x="47" y="22" xmlns="http://www.w3.org/2000/svg"><path d="M365.257 67.393H95.744C42.866 67.393 0 110.259 0 163.137v134.728c0 52.878 42.866 95.744 95.744 95.744h269.513c52.878 0 95.744-42.866 95.744-95.744V163.137c0-52.878-42.866-95.744-95.744-95.744zm-64.751 169.663l-126.06 60.123c-3.359 1.602-7.239-.847-7.239-4.568V168.607c0-3.774 3.982-6.22 7.348-4.514l126.06 63.881c3.748 1.899 3.683 7.274-.109 9.082z" data-original="#F61C0D" class="factive-path" data-old_color="#a4119f" fill="#a4119f"/></svg></svg>