<?xml version="1.0" encoding="UTF-8"?>
<svg xmlns="http://www.w3.org/2000/svg" xmlns:xlink="http://www.w3.org/1999/xlink" width="20pt" height="20pt" viewBox="0 0 20 20" version="1.1">
<g id="surface1">
<path style=" stroke:none;fill-rule:nonzero;fill:rgb(88.235294%,22.745098%,22.745098%);fill-opacity:1;" d="M 10 18.886719 C 9.714844 18.886719 9.441406 18.785156 9.226562 18.597656 C 8.417969 17.890625 7.640625 17.226562 6.953125 16.640625 L 6.949219 16.636719 C 4.933594 14.921875 3.195312 13.4375 1.984375 11.976562 C 0.628906 10.34375 0 8.796875 0 7.105469 C 0 5.460938 0.5625 3.945312 1.585938 2.835938 C 2.621094 1.710938 4.042969 1.09375 5.585938 1.09375 C 6.742188 1.09375 7.800781 1.457031 8.730469 2.179688 C 9.199219 2.542969 9.625 2.988281 10 3.503906 C 10.375 2.988281 10.800781 2.542969 11.269531 2.179688 C 12.203125 1.457031 13.257812 1.09375 14.414062 1.09375 C 15.957031 1.09375 17.378906 1.710938 18.414062 2.835938 C 19.4375 3.945312 20 5.460938 20 7.105469 C 20 8.796875 19.371094 10.34375 18.015625 11.976562 C 16.804688 13.4375 15.066406 14.921875 13.050781 16.636719 C 12.363281 17.222656 11.582031 17.890625 10.773438 18.597656 C 10.558594 18.785156 10.285156 18.886719 10 18.886719 Z M 5.585938 2.265625 C 4.375 2.265625 3.257812 2.75 2.449219 3.628906 C 1.625 4.523438 1.171875 5.757812 1.171875 7.105469 C 1.171875 8.527344 1.699219 9.800781 2.886719 11.230469 C 4.03125 12.613281 5.734375 14.066406 7.707031 15.746094 L 7.710938 15.75 C 8.402344 16.335938 9.183594 17.003906 10 17.714844 C 10.816406 17.003906 11.601562 16.335938 12.292969 15.746094 C 14.265625 14.0625 15.96875 12.613281 17.113281 11.230469 C 18.300781 9.800781 18.828125 8.527344 18.828125 7.105469 C 18.828125 5.757812 18.375 4.523438 17.550781 3.628906 C 16.742188 2.75 15.625 2.265625 14.414062 2.265625 C 13.523438 2.265625 12.707031 2.546875 11.988281 3.105469 C 11.34375 3.601562 10.898438 4.230469 10.636719 4.667969 C 10.5 4.894531 10.261719 5.03125 10 5.03125 C 9.738281 5.03125 9.5 4.894531 9.363281 4.667969 C 9.101562 4.230469 8.65625 3.601562 8.011719 3.105469 C 7.292969 2.546875 6.476562 2.265625 5.585938 2.265625 Z M 5.585938 2.265625 "/>
</g>
</svg>
