<?xml version="1.0" encoding="UTF-8"?>
<svg xmlns="http://www.w3.org/2000/svg" xmlns:xlink="http://www.w3.org/1999/xlink" width="25pt" height="25pt" viewBox="0 0 25 25" version="1.1">
<g id="surface1">
<path style=" stroke:none;fill-rule:nonzero;fill:rgb(99.215686%,89.019608%,50.196078%);fill-opacity:1;" d="M 24.539062 22.273438 L 22.003906 22.273438 L 21.386719 16.421875 L 22.070312 17.445312 L 22.238281 18.292969 C 22.320312 18.699219 22.574219 19.046875 22.941406 19.246094 C 23.148438 19.355469 23.375 19.414062 23.605469 19.414062 C 23.78125 19.414062 23.957031 19.378906 24.125 19.3125 C 24.484375 19.167969 24.769531 18.878906 24.910156 18.515625 C 25.046875 18.148438 25.027344 17.742188 24.851562 17.394531 L 24.496094 16.683594 C 24.496094 16.679688 24.492188 16.675781 24.492188 16.675781 C 24.492188 16.671875 24.492188 16.671875 24.488281 16.667969 L 21.996094 12.09375 C 21.949219 12.007812 21.875 11.941406 21.785156 11.90625 L 20.65625 11.457031 C 21.503906 10.769531 22.046875 9.71875 22.046875 8.546875 C 22.046875 7.921875 21.878906 7.304688 21.578125 6.753906 L 21.363281 4.605469 C 22.03125 4.320312 22.460938 3.765625 22.460938 3.140625 C 22.460938 2.246094 21.570312 1.511719 20.464844 1.480469 C 20.019531 0.710938 19.203125 0.230469 18.300781 0.230469 C 17.402344 0.230469 16.582031 0.710938 16.140625 1.480469 C 15.03125 1.511719 14.140625 2.246094 14.140625 3.140625 C 14.140625 3.765625 14.570312 4.320312 15.242188 4.605469 L 15.027344 6.753906 C 14.722656 7.304688 14.558594 7.921875 14.558594 8.546875 C 14.558594 9.71875 15.101562 10.769531 15.945312 11.453125 L 14.820312 11.90625 C 14.753906 11.933594 14.695312 11.976562 14.648438 12.03125 L 13.246094 13.785156 L 11.550781 12.429688 L 11.097656 11.675781 C 11.019531 11.546875 10.921875 11.4375 10.816406 11.339844 L 10.816406 10.210938 C 10.816406 9.671875 10.464844 9.214844 9.984375 9.039062 L 9.984375 7.300781 L 10.398438 7.300781 C 11.085938 7.300781 11.648438 6.742188 11.648438 6.054688 L 11.648438 3.558594 C 11.648438 2.871094 11.085938 2.308594 10.398438 2.308594 L 8.734375 2.308594 C 8.046875 2.308594 7.488281 2.871094 7.488281 3.558594 L 7.488281 6.054688 C 7.488281 6.742188 8.046875 7.300781 8.734375 7.300781 L 9.152344 7.300781 L 9.152344 9.039062 C 8.667969 9.214844 8.320312 9.671875 8.320312 10.210938 L 8.320312 11.875 C 8.320312 11.875 8.320312 11.878906 8.320312 11.878906 C 8.214844 12.125 8.167969 12.394531 8.203125 12.671875 C 8.261719 13.152344 8.535156 13.570312 8.949219 13.820312 L 9.738281 14.292969 L 12.503906 16.714844 C 12.96875 17.117188 13.648438 17.128906 14.121094 16.730469 L 15.285156 15.761719 L 14.601562 22.273438 L 7.328125 22.273438 L 7.816406 21.300781 C 8.59375 21 9.152344 20.246094 9.152344 19.363281 L 9.152344 18.453125 C 9.632812 18.28125 9.984375 17.824219 9.984375 17.285156 C 9.984375 16.59375 9.421875 16.035156 8.734375 16.035156 L 1.246094 16.035156 C 0.558594 16.035156 0 16.59375 0 17.285156 C 0 17.824219 0.347656 18.28125 0.832031 18.453125 L 0.832031 19.363281 C 0.832031 20.246094 1.386719 21 2.167969 21.300781 L 2.65625 22.273438 L 0.414062 22.273438 C 0.1875 22.273438 0 22.460938 0 22.691406 L 0 24.355469 C 0 24.585938 0.1875 24.769531 0.414062 24.769531 L 24.539062 24.769531 C 24.769531 24.769531 24.957031 24.585938 24.957031 24.355469 L 24.957031 22.691406 C 24.957031 22.460938 24.769531 22.273438 24.539062 22.273438 Z M 9.152344 6.46875 L 8.734375 6.46875 C 8.503906 6.46875 8.320312 6.28125 8.320312 6.054688 L 8.320312 3.558594 C 8.320312 3.328125 8.503906 3.140625 8.734375 3.140625 L 9.152344 3.140625 Z M 24.109375 17.765625 C 24.179688 17.90625 24.1875 18.070312 24.132812 18.21875 C 24.074219 18.367188 23.960938 18.480469 23.816406 18.539062 C 23.660156 18.601562 23.484375 18.59375 23.339844 18.511719 C 23.191406 18.433594 23.085938 18.292969 23.054688 18.128906 L 22.945312 17.589844 L 23.902344 17.351562 Z M 21.335938 12.621094 L 23.503906 16.59375 L 22.644531 16.808594 L 21.183594 14.613281 L 20.578125 12.320312 Z M 20.421875 15.203125 L 21.167969 22.273438 L 15.4375 22.273438 L 16.179688 15.203125 Z M 16.347656 14.371094 L 16.957031 12.039062 C 16.976562 12.046875 16.992188 12.050781 17.007812 12.058594 C 17.09375 12.085938 17.175781 12.117188 17.261719 12.140625 C 17.296875 12.152344 17.328125 12.160156 17.363281 12.167969 C 17.441406 12.1875 17.519531 12.207031 17.601562 12.222656 C 17.644531 12.230469 17.683594 12.234375 17.726562 12.242188 C 17.800781 12.253906 17.875 12.265625 17.953125 12.273438 C 18.003906 12.277344 18.058594 12.28125 18.113281 12.28125 C 18.175781 12.285156 18.238281 12.292969 18.300781 12.292969 C 18.367188 12.292969 18.425781 12.285156 18.492188 12.28125 C 18.542969 12.28125 18.597656 12.277344 18.652344 12.273438 C 18.726562 12.265625 18.804688 12.253906 18.878906 12.242188 C 18.917969 12.234375 18.960938 12.230469 19 12.222656 C 19.082031 12.207031 19.160156 12.1875 19.242188 12.167969 C 19.273438 12.160156 19.308594 12.152344 19.339844 12.140625 C 19.425781 12.117188 19.511719 12.089844 19.59375 12.058594 C 19.609375 12.050781 19.628906 12.046875 19.644531 12.039062 L 20.257812 14.371094 Z M 14.972656 3.140625 C 14.972656 2.691406 15.546875 2.308594 16.222656 2.308594 C 16.246094 2.308594 16.269531 2.3125 16.292969 2.316406 L 16.359375 2.320312 C 16.535156 2.332031 16.703125 2.234375 16.773438 2.070312 C 17.035156 1.457031 17.636719 1.0625 18.300781 1.0625 C 18.96875 1.0625 19.566406 1.457031 19.832031 2.070312 C 19.902344 2.234375 20.070312 2.335938 20.246094 2.320312 L 20.3125 2.316406 C 20.335938 2.3125 20.355469 2.308594 20.382812 2.308594 C 21.058594 2.308594 21.628906 2.691406 21.628906 3.140625 C 21.628906 3.472656 21.292969 3.792969 20.8125 3.914062 C 20.613281 3.964844 20.480469 4.152344 20.5 4.359375 L 20.753906 6.882812 L 15.851562 6.882812 L 16.101562 4.359375 C 16.121094 4.15625 15.988281 3.964844 15.789062 3.914062 C 15.308594 3.792969 14.972656 3.472656 14.972656 3.140625 Z M 15.390625 8.546875 C 15.390625 8.265625 15.433594 7.984375 15.511719 7.714844 L 21.089844 7.714844 C 21.171875 7.984375 21.214844 8.265625 21.214844 8.546875 C 21.214844 9.703125 20.535156 10.699219 19.558594 11.171875 C 19.464844 11.214844 19.367188 11.257812 19.269531 11.289062 C 19.265625 11.292969 19.261719 11.292969 19.257812 11.296875 C 18.636719 11.511719 17.964844 11.511719 17.347656 11.296875 C 17.339844 11.292969 17.335938 11.292969 17.332031 11.289062 C 17.234375 11.257812 17.136719 11.214844 17.042969 11.171875 C 16.066406 10.699219 15.390625 9.703125 15.390625 8.546875 Z M 9.984375 3.140625 L 10.398438 3.140625 C 10.628906 3.140625 10.816406 3.328125 10.816406 3.558594 L 10.816406 6.054688 C 10.816406 6.28125 10.628906 6.46875 10.398438 6.46875 L 9.984375 6.46875 Z M 9.566406 9.796875 C 9.796875 9.796875 9.984375 9.984375 9.984375 10.210938 L 9.984375 10.933594 C 9.980469 10.933594 9.976562 10.933594 9.976562 10.933594 C 9.964844 10.933594 9.957031 10.929688 9.945312 10.925781 C 9.921875 10.925781 9.902344 10.929688 9.878906 10.925781 C 9.804688 10.921875 9.734375 10.917969 9.660156 10.925781 C 9.625 10.925781 9.589844 10.925781 9.554688 10.929688 C 9.46875 10.941406 9.386719 10.960938 9.300781 10.988281 C 9.265625 10.996094 9.234375 11.007812 9.199219 11.019531 C 9.183594 11.027344 9.167969 11.03125 9.152344 11.039062 L 9.152344 10.210938 C 9.152344 9.984375 9.335938 9.796875 9.566406 9.796875 Z M 9.378906 13.109375 C 9.183594 12.992188 9.054688 12.792969 9.027344 12.570312 C 9.011719 12.421875 9.039062 12.277344 9.105469 12.152344 C 9.105469 12.148438 9.109375 12.144531 9.109375 12.144531 C 9.128906 12.109375 9.148438 12.078125 9.164062 12.050781 C 9.1875 12.019531 9.210938 11.988281 9.238281 11.960938 C 9.296875 11.902344 9.363281 11.859375 9.433594 11.824219 C 9.441406 11.820312 9.445312 11.816406 9.453125 11.816406 C 9.523438 11.78125 9.597656 11.761719 9.675781 11.753906 C 9.683594 11.753906 9.6875 11.753906 9.691406 11.753906 C 9.769531 11.746094 9.84375 11.753906 9.917969 11.769531 C 9.925781 11.773438 9.933594 11.773438 9.941406 11.777344 C 10.019531 11.796875 10.097656 11.828125 10.164062 11.875 C 10.167969 11.878906 10.171875 11.878906 10.171875 11.878906 C 10.257812 11.9375 10.328125 12.011719 10.382812 12.101562 L 10.707031 12.644531 L 9.917969 13.433594 Z M 13.589844 16.09375 C 13.433594 16.222656 13.203125 16.222656 13.050781 16.085938 L 10.589844 13.933594 L 11.261719 13.265625 L 13.050781 14.695312 C 13.230469 14.839844 13.492188 14.8125 13.632812 14.632812 L 15.230469 12.636719 L 16.023438 12.320312 L 15.4375 14.554688 Z M 1.246094 17.699219 C 1.019531 17.699219 0.832031 17.511719 0.832031 17.285156 C 0.832031 17.054688 1.019531 16.867188 1.246094 16.867188 L 8.734375 16.867188 C 8.964844 16.867188 9.152344 17.054688 9.152344 17.285156 C 9.152344 17.511719 8.964844 17.699219 8.734375 17.699219 Z M 1.664062 19.363281 L 1.664062 18.53125 L 8.320312 18.53125 L 8.320312 19.363281 C 8.320312 20.050781 7.757812 20.609375 7.070312 20.609375 L 2.910156 20.609375 C 2.222656 20.609375 1.664062 20.050781 1.664062 19.363281 Z M 6.8125 21.441406 L 6.398438 22.273438 L 5.40625 22.273438 L 5.40625 21.441406 Z M 4.574219 21.441406 L 4.574219 22.273438 L 3.585938 22.273438 L 3.167969 21.441406 Z M 24.125 23.9375 L 0.832031 23.9375 L 0.832031 23.105469 L 24.125 23.105469 Z M 24.125 23.9375 "/>
<path style=" stroke:none;fill-rule:nonzero;fill:rgb(99.215686%,89.019608%,50.196078%);fill-opacity:1;" d="M 19.550781 16.867188 L 17.054688 16.867188 C 16.824219 16.867188 16.636719 17.054688 16.636719 17.285156 L 16.636719 18.53125 C 16.636719 19.449219 17.382812 20.195312 18.300781 20.195312 C 19.21875 20.195312 19.964844 19.449219 19.964844 18.53125 L 19.964844 17.285156 C 19.964844 17.054688 19.777344 16.867188 19.550781 16.867188 Z M 19.132812 18.53125 C 19.132812 18.988281 18.761719 19.363281 18.300781 19.363281 C 17.84375 19.363281 17.46875 18.988281 17.46875 18.53125 L 17.46875 17.699219 L 19.132812 17.699219 Z M 19.132812 18.53125 "/>
<path style=" stroke:none;fill-rule:nonzero;fill:rgb(99.215686%,89.019608%,50.196078%);fill-opacity:1;" d="M 4.574219 12.707031 L 5.40625 12.707031 L 5.40625 14.789062 L 4.574219 14.789062 Z M 4.574219 12.707031 "/>
<path style=" stroke:none;fill-rule:nonzero;fill:rgb(99.215686%,89.019608%,50.196078%);fill-opacity:1;" d="M 6.65625 13.539062 L 7.488281 13.539062 L 7.488281 15.203125 L 6.65625 15.203125 Z M 6.65625 13.539062 "/>
<path style=" stroke:none;fill-rule:nonzero;fill:rgb(99.215686%,89.019608%,50.196078%);fill-opacity:1;" d="M 2.496094 13.539062 L 3.328125 13.539062 L 3.328125 15.203125 L 2.496094 15.203125 Z M 2.496094 13.539062 "/>
<path style=" stroke:none;fill-rule:nonzero;fill:rgb(99.215686%,89.019608%,50.196078%);fill-opacity:1;" d="M 4.574219 11.042969 L 5.40625 11.042969 L 5.40625 11.875 L 4.574219 11.875 Z M 4.574219 11.042969 "/>
<path style=" stroke:none;fill-rule:nonzero;fill:rgb(99.215686%,89.019608%,50.196078%);fill-opacity:1;" d="M 2.496094 11.875 L 3.328125 11.875 L 3.328125 12.707031 L 2.496094 12.707031 Z M 2.496094 11.875 "/>
<path style=" stroke:none;fill-rule:nonzero;fill:rgb(99.215686%,89.019608%,50.196078%);fill-opacity:1;" d="M 6.65625 11.875 L 7.488281 11.875 L 7.488281 12.707031 L 6.65625 12.707031 Z M 6.65625 11.875 "/>
</g>
</svg>
