<?xml version="1.0" encoding="UTF-8"?>
<svg xmlns="http://www.w3.org/2000/svg" xmlns:xlink="http://www.w3.org/1999/xlink" width="25pt" height="25pt" viewBox="0 0 25 25" version="1.1">
<g id="surface1">
<path style=" stroke:none;fill-rule:nonzero;fill:rgb(64.313725%,6.666667%,62.352941%);fill-opacity:1;" d="M 24.691406 1.351562 C 24.484375 1.144531 24.242188 1.042969 23.957031 1.042969 C 23.675781 1.042969 23.433594 1.144531 23.226562 1.351562 L 21.109375 3.449219 C 19.949219 2.355469 18.621094 1.503906 17.121094 0.902344 C 15.625 0.300781 14.085938 0 12.5 0 C 9.515625 0 6.910156 0.902344 4.6875 2.710938 C 2.464844 4.515625 1 6.875 0.292969 9.78125 L 0.292969 9.894531 C 0.292969 10.035156 0.34375 10.160156 0.449219 10.261719 C 0.550781 10.363281 0.671875 10.417969 0.8125 10.417969 L 4.050781 10.417969 C 4.292969 10.417969 4.453125 10.292969 4.539062 10.042969 C 4.996094 8.957031 5.285156 8.324219 5.402344 8.136719 C 6.164062 6.902344 7.171875 5.929688 8.429688 5.222656 C 9.691406 4.519531 11.046875 4.167969 12.5 4.167969 C 14.679688 4.167969 16.574219 4.910156 18.179688 6.394531 L 15.933594 8.640625 C 15.726562 8.847656 15.625 9.09375 15.625 9.375 C 15.625 9.65625 15.726562 9.902344 15.933594 10.109375 C 16.140625 10.3125 16.382812 10.417969 16.667969 10.417969 L 23.957031 10.417969 C 24.242188 10.417969 24.484375 10.3125 24.691406 10.109375 C 24.898438 9.902344 25 9.65625 25 9.375 L 25 2.082031 C 25 1.800781 24.898438 1.558594 24.691406 1.351562 Z M 24.691406 1.351562 "/>
<path style=" stroke:none;fill-rule:nonzero;fill:rgb(64.313725%,6.666667%,62.352941%);fill-opacity:1;" d="M 24.070312 14.582031 L 20.945312 14.582031 C 20.707031 14.582031 20.546875 14.707031 20.460938 14.957031 C 20.003906 16.042969 19.714844 16.675781 19.597656 16.863281 C 18.835938 18.097656 17.828125 19.070312 16.570312 19.777344 C 15.308594 20.480469 13.953125 20.832031 12.5 20.832031 C 11.449219 20.832031 10.433594 20.636719 9.457031 20.246094 C 8.480469 19.855469 7.605469 19.304688 6.835938 18.585938 L 9.066406 16.355469 C 9.273438 16.152344 9.375 15.90625 9.375 15.625 C 9.375 15.34375 9.273438 15.097656 9.066406 14.890625 C 8.859375 14.6875 8.617188 14.582031 8.332031 14.582031 L 1.042969 14.582031 C 0.757812 14.582031 0.515625 14.6875 0.308594 14.890625 C 0.101562 15.097656 0 15.34375 0 15.625 L 0 22.917969 C 0 23.199219 0.101562 23.441406 0.308594 23.648438 C 0.515625 23.855469 0.757812 23.957031 1.042969 23.957031 C 1.324219 23.957031 1.566406 23.855469 1.773438 23.648438 L 3.875 21.550781 C 5.035156 22.65625 6.355469 23.507812 7.835938 24.105469 C 9.320312 24.703125 10.851562 25 12.433594 25 C 15.410156 25 18 24.097656 20.214844 22.289062 C 22.429688 20.484375 23.882812 18.125 24.578125 15.21875 C 24.589844 15.195312 24.59375 15.160156 24.59375 15.105469 C 24.59375 14.964844 24.542969 14.839844 24.4375 14.738281 C 24.335938 14.636719 24.214844 14.582031 24.070312 14.582031 Z M 24.070312 14.582031 "/>
</g>
</svg>
